<svg height="300pt" preserveAspectRatio="xMidYMid meet" viewBox="0 0 300 300" width="300pt" xmlns="http://www.w3.org/2000/svg">
  <g transform="matrix(.1 0 0 -.1 0 300)">
    <path d="m1468 2630c-197-23-411-117-553-241l-33-30-34 21c-47 28-87 25-142-11-64-43-156-137-204-208-74-111-132-289-132-404 0-50-5-53-90-56-114-3-180-13-180-28 0-12 19-14 132-8l133 7 16-89c9-49 28-117 42-152l25-63-126-61c-117-58-157-87-118-87 9 0 39 11 66 25s55 25 63 25c13 0 47-59 47-81 0-6-29-24-65-40-62-28-76-41-56-53 7-5 234 94 249 108 19 19 43-4 99-95 35-55 63-106 63-112-1-7-43-57-95-112s-95-103-95-106c0-12 101-99 115-99 25 0 17 16-25 56-22 21-40 42-40 46 0 15 63 78 78 78 9 0 26-10 39-22 17-16 26-19 34-11s4 17-15 34c-33 29-33 39 3 73l29 28 39-61c103-168 116-184 150-187 18-2 33 0 33 5s-88 153-196 328-209 345-224 378c-93 202-77 471 38 663 46 76 121 162 128 147 2-5 65-102 138-215l134-204-43-41c-23-22-50-55-60-74-24-48-30-137-12-188 24-68 316-530 363-573 70-65 173-79 259-35 27 13 52 22 56 20 4-3 38-54 75-114 38-61 77-112 86-114 22-6 20-3-69 141-34 56-63 106-63 111 0 17 73 52 94 47 14-4 53-58 111-152 50-81 93-154 97-163 3-10 29-38 58-64l52-47-3-82c-4-72-2-83 14-86 15-3 17 5 17 57 0 33 4 62 8 65 5 3 22-8 38-25 35-38 61-52 75-43 7 4-11 29-45 63l-55 56-3 88c-2 49-7 87-13 87-5 1-14-25-19-57s-10-60-12-62c-7-8-54 42-48 50 3 5 1 16-4 25-6 12 3 37 34 91 24 42 51 98 61 125l18 50 50-6c27-3 86-6 129-6h80l-32-33c-18-18-32-37-32-42s11-21 26-36l25-26-48-40c-26-22-70-55-97-72-28-17-46-31-40-32 5-1 31-1 58 0 43 1 58 7 109 47l60 46 60-61c33-33 63-61 66-61 16 0 112 108 102 114-14 9-40-5-70-38-14-14-29-26-35-26s-26 19-45 41l-33 40 27 29c15 16 24 33 21 39-4 6 18 45 47 88 30 43 69 106 86 141 17 34 33 62 35 62 3 0 48-20 102-45 53-25 98-45 100-45s4 7 4 15-23 26-51 40c-40 21-49 30-43 43 4 9 7 29 6 45-1 15 3 27 8 27s7-6 4-14c-4-11 0-13 15-9 11 3 36 0 55-7 44-14 76-5 76 21 0 21-10 25-26 9-6-6-24-4-49 5-22 8-45 14-51 15-6 0-29 17-52 39l-40 39 14 93c8 52 14 138 14 192 0 83 2 97 16 97 9 0 70-29 134-65s122-65 127-65c13 0 23 48 23 111 0 36-4 49-14 49-16 0-30-65-24-109 2-13-3-25-10-27-7-1-8 0-2 3 5 2 10 8 10 11 0 4-63 41-139 82l-139 75-21 78c-45 167-134 330-250 459-158 174-409 300-654 327-106 12-130 12-229 1zm129-182c-4-66-7-173-7-236v-114l-197 7c-109 4-200 9-202 11-7 6 60 161 97 225 48 82 141 182 195 208 23 12 60 21 81 21h39zm171 80c84-58 172-196 227-358 14-40 25-76 25-78 0-6-390 5-396 11-3 3-2 109 2 236l7 232 46-7c25-4 65-20 89-36zm-377-3c-72-61-189-254-223-369-14-46-23-50-92-42l-54 7-52 86-52 85 29 30c36 39 174 130 238 159 58 26 192 68 218 68 15 1 12-4-12-24zm500-6c135-44 256-118 368-224 63-60 171-195 171-214 0-7-323-3-355 4-16 3-26 22-44 77-37 118-106 249-167 317-31 33-52 61-46 61 5 0 37-9 73-21zm-954-393c75-121 123-208 121-220-3-18-83-85-91-75-15 19-277 430-277 434 0 13 86 66 103 63 13-2 61-69 144-202zm200-60c-3-8-9-31-13-51-7-41-14-38-53 28l-23 37h47c37 0 46-3 42-14zm327 4h119l-6-241c-3-133-8-243-10-245s-108-1-236 3l-234 6 7 91c9 129 51 354 73 390 3 5 42 6 87 2 45-3 135-6 200-6zm566-30c14-22 40-217 47-346l6-124h-129c-71 0-179 3-241 7l-111 6 4 141c3 78 7 186 10 241l6 100 200-6c150-4 202-9 208-19zm302 3 127-6 31-74c44-105 70-213 77-322l6-94-123 6c-68 4-172 7-232 7h-108v94c0 94-23 301-40 364l-8 32h71c40 0 129-3 199-7zm-1256-285c-3-29-6-77-6-105v-53h-96-96l6 31c9 48 43 87 115 135 36 24 70 43 75 44 5 0 6-24 2-52zm1574-33c0-8-4-15-10-15-5 0-10 7-10 15s5 15 10 15c6 0 10-7 10-15zm-1629-161 44-6 3-112c2-61 7-140 12-176 5-35 8-65 7-66-6-6-196 314-202 339-7 27-7 27 43 27 27 0 69-3 93-6zm546-18c2-1 0-114-4-250l-6-247-27-19c-26-18-39-19-182-13l-155 6-30 51c-39 65-53 143-60 335l-6 154 234-8c129-4 235-8 236-9zm430-12 82-6-5-66c-9-110-44-312-68-387l-22-70h-134c-134 0-135 0-162 28-20 20-37 27-64 27h-37l6 167c4 91 7 201 7 243v78l158-5c86-2 194-6 239-9zm572-20c7-7-20-177-32-198-6-12-10-25-9-29 1-5-2-6-7-2-6 3-22-17-36-45-22-43-23-51-10-56 20-8 13-30-39-122l-41-74-182 4c-100 1-184 6-187 9-4 3 5 48 19 100 29 113 51 234 60 348l7 83 227-7c124-4 228-9 230-11zm-2075-225c15-22 26-42 24-44-6-6-87-45-93-45-9 0-45 64-45 81 0 14 51 47 76 48 6 1 24-17 38-40zm-126 7c-2-17-7-22-20-18-18 4-18 5-1 23 23 23 23 23 21-5zm2293-37c8-15 8-19 0-15-7 5-11-3-11-19 0-21-12-57-25-73-1-1-15 3-29 10-28 12-29 22-6 83 11 28 13 29 42 14 18-10 20-9 15 5-9 23 0 20 14-5zm-1241-279c25-7 24-8-12-24-21-9-50-16-65-16-28 0-113 34-113 45 0 8 161 4 190-5zm544-32c-11-36-82-176-93-182-8-5-131 180-131 198 0 3 52 6 116 6 115 0 115 0 108-22zm396 3c0-4-19-29-41-55-40-45-42-46-60-30s-18 19-3 35c10 11 12 19 4 22-6 3-5 4 2 3 7-2 24 5 37 15 24 20 61 26 61 10zm-1730-56c0-9-9-15-21-15-18 0-19 2-9 15 7 8 16 15 21 15s9-7 9-15zm1700-110c0-8-4-15-10-15-5 0-10 7-10 15s5 15 10 15c6 0 10-7 10-15zm-345-225c3-5 1-10-4-10-6 0-11 5-11 10 0 6 2 10 4 10 3 0 8-4 11-10z"/><path d="m1004 723c-9-26-21-53-25-58-11-15-69-174-69-189 0-8 26-23 58-34 75-28 84-29 89-15 3 8-18 23-52 38-60 26-64 37-30 90 16 27 67 166 69 189 2 39-23 25-40-21z"/><path d="m1455 648c-40-23-44-39-45-175 0-73 4-134 9-138 17-10 33 34 29 78l-3 42h50 50l2-54c3-88 37-100 37-13 1 183-3 222-29 247-26 27-67 32-100 13zm73-34c20-14 23-23 20-67l-3-52h-44c-40 0-45 3-52 28-8 32 5 87 23 99 19 11 31 10 56-8zm-71-137c-6-20-27-19-27 2 0 14 5 19 15 14 9-3 14-10 12-16z"/>
  </g>
</svg>